<mxfile host="app.diagrams.net" agent="Mozilla/5.0 (Windows NT 10.0; Win64; x64) AppleWebKit/537.36 (KHTML, like Gecko) Chrome/136.0.0.0 Safari/537.36 Edg/136.0.0.0" version="27.0.5">
  <diagram name="Page-1" id="2YBvvXClWsGukQMizWep">
    <mxGraphModel dx="1143" dy="695" grid="1" gridSize="10" guides="1" tooltips="1" connect="1" arrows="1" fold="1" page="1" pageScale="1" pageWidth="850" pageHeight="1100" math="0" shadow="0">
      <root>
        <mxCell id="0" />
        <mxCell id="1" parent="0" />
        <mxCell id="iVYWNHgPXUImS8ycA5Ws-2" value="Customer" style="shape=umlActor;verticalLabelPosition=bottom;verticalAlign=top;html=1;outlineConnect=0;" parent="1" vertex="1">
          <mxGeometry x="110" y="90" width="30" height="60" as="geometry" />
        </mxCell>
        <mxCell id="iVYWNHgPXUImS8ycA5Ws-4" value="" style="endArrow=none;dashed=1;html=1;dashPattern=1 3;strokeWidth=2;rounded=0;" parent="1" source="iVYWNHgPXUImS8ycA5Ws-5" edge="1">
          <mxGeometry width="50" height="50" relative="1" as="geometry">
            <mxPoint x="120" y="480" as="sourcePoint" />
            <mxPoint x="120" y="200" as="targetPoint" />
          </mxGeometry>
        </mxCell>
        <mxCell id="iVYWNHgPXUImS8ycA5Ws-6" value="" style="endArrow=none;dashed=1;html=1;dashPattern=1 3;strokeWidth=2;rounded=0;" parent="1" target="iVYWNHgPXUImS8ycA5Ws-5" edge="1">
          <mxGeometry width="50" height="50" relative="1" as="geometry">
            <mxPoint x="120" y="970" as="sourcePoint" />
            <mxPoint x="120" y="200" as="targetPoint" />
          </mxGeometry>
        </mxCell>
        <mxCell id="iVYWNHgPXUImS8ycA5Ws-5" value="" style="rounded=0;whiteSpace=wrap;html=1;fillColor=#5E5E5E;" parent="1" vertex="1">
          <mxGeometry x="110" y="220" width="20" height="60" as="geometry" />
        </mxCell>
        <mxCell id="iVYWNHgPXUImS8ycA5Ws-7" value="Login Page" style="rounded=0;whiteSpace=wrap;html=1;" parent="1" vertex="1">
          <mxGeometry x="250" y="110" width="80" height="30" as="geometry" />
        </mxCell>
        <mxCell id="iVYWNHgPXUImS8ycA5Ws-12" value="" style="endArrow=none;dashed=1;html=1;dashPattern=1 3;strokeWidth=2;rounded=0;" parent="1" target="iVYWNHgPXUImS8ycA5Ws-13" edge="1">
          <mxGeometry width="50" height="50" relative="1" as="geometry">
            <mxPoint x="290" y="630" as="sourcePoint" />
            <mxPoint x="290" y="200" as="targetPoint" />
          </mxGeometry>
        </mxCell>
        <mxCell id="iVYWNHgPXUImS8ycA5Ws-13" value="" style="rounded=0;whiteSpace=wrap;html=1;fillColor=#5E5E5E;" parent="1" vertex="1">
          <mxGeometry x="280" y="220" width="20" height="710" as="geometry" />
        </mxCell>
        <mxCell id="iVYWNHgPXUImS8ycA5Ws-16" value="" style="endArrow=classic;html=1;rounded=0;exitX=1;exitY=0.5;exitDx=0;exitDy=0;" parent="1" source="iVYWNHgPXUImS8ycA5Ws-5" edge="1">
          <mxGeometry width="50" height="50" relative="1" as="geometry">
            <mxPoint x="360" y="330" as="sourcePoint" />
            <mxPoint x="280" y="250" as="targetPoint" />
          </mxGeometry>
        </mxCell>
        <mxCell id="iVYWNHgPXUImS8ycA5Ws-17" value="Login(data)" style="edgeLabel;html=1;align=center;verticalAlign=middle;resizable=0;points=[];" parent="iVYWNHgPXUImS8ycA5Ws-16" vertex="1" connectable="0">
          <mxGeometry relative="1" as="geometry">
            <mxPoint as="offset" />
          </mxGeometry>
        </mxCell>
        <mxCell id="iVYWNHgPXUImS8ycA5Ws-18" value="Auth System" style="rounded=0;whiteSpace=wrap;html=1;" parent="1" vertex="1">
          <mxGeometry x="400" y="110" width="80" height="30" as="geometry" />
        </mxCell>
        <mxCell id="iVYWNHgPXUImS8ycA5Ws-20" value="" style="endArrow=none;dashed=1;html=1;dashPattern=1 3;strokeWidth=2;rounded=0;entryX=0.5;entryY=1;entryDx=0;entryDy=0;" parent="1" target="iVYWNHgPXUImS8ycA5Ws-18" edge="1">
          <mxGeometry width="50" height="50" relative="1" as="geometry">
            <mxPoint x="440" y="970" as="sourcePoint" />
            <mxPoint x="440" y="270" as="targetPoint" />
          </mxGeometry>
        </mxCell>
        <mxCell id="iVYWNHgPXUImS8ycA5Ws-34" value="" style="rounded=0;whiteSpace=wrap;html=1;fillColor=none;movable=0;resizable=0;rotatable=0;deletable=0;editable=0;locked=1;connectable=0;" parent="1" vertex="1">
          <mxGeometry x="40" y="360" width="770" height="610" as="geometry" />
        </mxCell>
        <mxCell id="iVYWNHgPXUImS8ycA5Ws-36" value="Alt" style="rounded=0;whiteSpace=wrap;html=1;" parent="1" vertex="1">
          <mxGeometry x="40" y="360" width="60" height="30" as="geometry" />
        </mxCell>
        <mxCell id="iVYWNHgPXUImS8ycA5Ws-39" style="edgeStyle=orthogonalEdgeStyle;rounded=0;orthogonalLoop=1;jettySize=auto;html=1;exitX=1;exitY=0.25;exitDx=0;exitDy=0;" parent="1" source="iVYWNHgPXUImS8ycA5Ws-13" target="iVYWNHgPXUImS8ycA5Ws-13" edge="1">
          <mxGeometry relative="1" as="geometry">
            <mxPoint x="320" y="310" as="sourcePoint" />
            <mxPoint x="330" y="329" as="targetPoint" />
            <Array as="points">
              <mxPoint x="300" y="241" />
              <mxPoint x="350" y="241" />
              <mxPoint x="350" y="330" />
            </Array>
          </mxGeometry>
        </mxCell>
        <mxCell id="iVYWNHgPXUImS8ycA5Ws-40" value="ValidateInput(Data)" style="edgeLabel;html=1;align=center;verticalAlign=middle;resizable=0;points=[];" parent="iVYWNHgPXUImS8ycA5Ws-39" vertex="1" connectable="0">
          <mxGeometry x="0.0462" y="2" relative="1" as="geometry">
            <mxPoint x="29" y="41" as="offset" />
          </mxGeometry>
        </mxCell>
        <mxCell id="iVYWNHgPXUImS8ycA5Ws-41" value="&lt;font style=&quot;font-size: 9px;&quot;&gt;[valid input]&lt;/font&gt;" style="text;html=1;align=center;verticalAlign=middle;whiteSpace=wrap;rounded=0;" parent="1" vertex="1">
          <mxGeometry x="70" y="390" width="50" height="20" as="geometry" />
        </mxCell>
        <mxCell id="iVYWNHgPXUImS8ycA5Ws-43" value="" style="rounded=0;whiteSpace=wrap;html=1;fillColor=#5E5E5E;" parent="1" vertex="1">
          <mxGeometry x="430" y="370" width="20" height="340" as="geometry" />
        </mxCell>
        <mxCell id="iVYWNHgPXUImS8ycA5Ws-55" value="" style="rounded=0;whiteSpace=wrap;html=1;fillColor=none;movable=1;resizable=1;rotatable=1;deletable=1;editable=1;locked=0;connectable=1;" parent="1" vertex="1">
          <mxGeometry x="70" y="470" width="690" height="320" as="geometry" />
        </mxCell>
        <mxCell id="iVYWNHgPXUImS8ycA5Ws-44" value="" style="endArrow=classic;html=1;rounded=0;entryX=0.142;entryY=0.071;entryDx=0;entryDy=0;entryPerimeter=0;" parent="1" target="iVYWNHgPXUImS8ycA5Ws-43" edge="1">
          <mxGeometry width="50" height="50" relative="1" as="geometry">
            <mxPoint x="300" y="393" as="sourcePoint" />
            <mxPoint x="400" y="360" as="targetPoint" />
          </mxGeometry>
        </mxCell>
        <mxCell id="iVYWNHgPXUImS8ycA5Ws-45" value="SendLoginData(Data)" style="edgeLabel;html=1;align=center;verticalAlign=middle;resizable=0;points=[];" parent="iVYWNHgPXUImS8ycA5Ws-44" vertex="1" connectable="0">
          <mxGeometry x="-0.1495" y="-2" relative="1" as="geometry">
            <mxPoint x="5" y="-5" as="offset" />
          </mxGeometry>
        </mxCell>
        <mxCell id="iVYWNHgPXUImS8ycA5Ws-56" value="Alt" style="rounded=0;whiteSpace=wrap;html=1;" parent="1" vertex="1">
          <mxGeometry x="70" y="470" width="40" height="30" as="geometry" />
        </mxCell>
        <mxCell id="iVYWNHgPXUImS8ycA5Ws-57" value="&lt;font size=&quot;1&quot;&gt;[Wrong Credentials]&lt;/font&gt;" style="text;html=1;align=center;verticalAlign=middle;whiteSpace=wrap;rounded=0;" parent="1" vertex="1">
          <mxGeometry x="70" y="500" width="100" height="20" as="geometry" />
        </mxCell>
        <mxCell id="iVYWNHgPXUImS8ycA5Ws-64" style="edgeStyle=orthogonalEdgeStyle;rounded=0;orthogonalLoop=1;jettySize=auto;html=1;exitX=0.993;exitY=0.153;exitDx=0;exitDy=0;exitPerimeter=0;" parent="1" source="iVYWNHgPXUImS8ycA5Ws-43" edge="1">
          <mxGeometry relative="1" as="geometry">
            <mxPoint x="449" y="460" as="targetPoint" />
            <Array as="points">
              <mxPoint x="500" y="402" />
              <mxPoint x="500" y="460" />
              <mxPoint x="449" y="460" />
            </Array>
          </mxGeometry>
        </mxCell>
        <mxCell id="iVYWNHgPXUImS8ycA5Ws-65" value="Authenticate(Data)" style="edgeLabel;html=1;align=center;verticalAlign=middle;resizable=0;points=[];" parent="iVYWNHgPXUImS8ycA5Ws-64" vertex="1" connectable="0">
          <mxGeometry x="-0.0108" y="1" relative="1" as="geometry">
            <mxPoint x="9" y="10" as="offset" />
          </mxGeometry>
        </mxCell>
        <mxCell id="iVYWNHgPXUImS8ycA5Ws-66" value="" style="endArrow=classic;html=1;rounded=0;dashed=1;" parent="1" edge="1">
          <mxGeometry width="50" height="50" relative="1" as="geometry">
            <mxPoint x="430" y="510" as="sourcePoint" />
            <mxPoint x="300" y="510" as="targetPoint" />
          </mxGeometry>
        </mxCell>
        <mxCell id="iVYWNHgPXUImS8ycA5Ws-67" value="ErrorResponse()" style="edgeLabel;html=1;align=center;verticalAlign=middle;resizable=0;points=[];" parent="iVYWNHgPXUImS8ycA5Ws-66" vertex="1" connectable="0">
          <mxGeometry x="-0.0615" y="2" relative="1" as="geometry">
            <mxPoint as="offset" />
          </mxGeometry>
        </mxCell>
        <mxCell id="iVYWNHgPXUImS8ycA5Ws-68" value="" style="rounded=0;whiteSpace=wrap;html=1;fillColor=#5E5E5E;" parent="1" vertex="1">
          <mxGeometry x="110" y="520" width="20" height="60" as="geometry" />
        </mxCell>
        <mxCell id="iVYWNHgPXUImS8ycA5Ws-69" value="" style="endArrow=classic;html=1;rounded=0;dashed=1;" parent="1" edge="1">
          <mxGeometry width="50" height="50" relative="1" as="geometry">
            <mxPoint x="280" y="550" as="sourcePoint" />
            <mxPoint x="130" y="549.8" as="targetPoint" />
          </mxGeometry>
        </mxCell>
        <mxCell id="iVYWNHgPXUImS8ycA5Ws-70" value="DisplayError()" style="edgeLabel;html=1;align=center;verticalAlign=middle;resizable=0;points=[];" parent="iVYWNHgPXUImS8ycA5Ws-69" vertex="1" connectable="0">
          <mxGeometry x="-0.0615" y="2" relative="1" as="geometry">
            <mxPoint as="offset" />
          </mxGeometry>
        </mxCell>
        <mxCell id="iVYWNHgPXUImS8ycA5Ws-71" value="" style="endArrow=none;dashed=1;html=1;dashPattern=8 8;strokeWidth=2;rounded=0;exitX=0.005;exitY=0.586;exitDx=0;exitDy=0;exitPerimeter=0;" parent="1" edge="1">
          <mxGeometry width="50" height="50" relative="1" as="geometry">
            <mxPoint x="72.76000000000005" y="600" as="sourcePoint" />
            <mxPoint x="750" y="600" as="targetPoint" />
          </mxGeometry>
        </mxCell>
        <mxCell id="iVYWNHgPXUImS8ycA5Ws-72" value="&lt;font size=&quot;1&quot;&gt;[Correct Credentials]&lt;/font&gt;" style="text;html=1;align=center;verticalAlign=middle;whiteSpace=wrap;rounded=0;" parent="1" vertex="1">
          <mxGeometry x="70" y="605" width="100" height="20" as="geometry" />
        </mxCell>
        <mxCell id="iVYWNHgPXUImS8ycA5Ws-77" value="" style="endArrow=none;dashed=1;html=1;dashPattern=1 3;strokeWidth=2;rounded=0;" parent="1" edge="1">
          <mxGeometry width="50" height="50" relative="1" as="geometry">
            <mxPoint x="289" y="930" as="sourcePoint" />
            <mxPoint x="290" y="970" as="targetPoint" />
          </mxGeometry>
        </mxCell>
        <mxCell id="iVYWNHgPXUImS8ycA5Ws-73" value="Homepage" style="rounded=0;whiteSpace=wrap;html=1;" parent="1" vertex="1">
          <mxGeometry x="640" y="110" width="80" height="30" as="geometry" />
        </mxCell>
        <mxCell id="iVYWNHgPXUImS8ycA5Ws-74" value="" style="endArrow=none;dashed=1;html=1;dashPattern=1 3;strokeWidth=2;rounded=0;entryX=0.5;entryY=1;entryDx=0;entryDy=0;" parent="1" source="iVYWNHgPXUImS8ycA5Ws-84" target="iVYWNHgPXUImS8ycA5Ws-73" edge="1">
          <mxGeometry width="50" height="50" relative="1" as="geometry">
            <mxPoint x="670" y="900" as="sourcePoint" />
            <mxPoint x="680" y="220" as="targetPoint" />
          </mxGeometry>
        </mxCell>
        <mxCell id="iVYWNHgPXUImS8ycA5Ws-78" value="" style="endArrow=classic;html=1;rounded=0;dashed=1;" parent="1" edge="1">
          <mxGeometry width="50" height="50" relative="1" as="geometry">
            <mxPoint x="430" y="630" as="sourcePoint" />
            <mxPoint x="300" y="630" as="targetPoint" />
          </mxGeometry>
        </mxCell>
        <mxCell id="iVYWNHgPXUImS8ycA5Ws-79" value="&lt;font style=&quot;font-size: 9px;&quot;&gt;S&lt;/font&gt;" style="edgeLabel;html=1;align=center;verticalAlign=middle;resizable=0;points=[];" parent="iVYWNHgPXUImS8ycA5Ws-78" vertex="1" connectable="0">
          <mxGeometry x="0.1319" relative="1" as="geometry">
            <mxPoint x="14" as="offset" />
          </mxGeometry>
        </mxCell>
        <mxCell id="74oEtMJvwkSqlpMajjEb-14" value="SendJWT()" style="edgeLabel;html=1;align=center;verticalAlign=middle;resizable=0;points=[];" vertex="1" connectable="0" parent="iVYWNHgPXUImS8ycA5Ws-78">
          <mxGeometry x="-0.0564" y="3" relative="1" as="geometry">
            <mxPoint as="offset" />
          </mxGeometry>
        </mxCell>
        <mxCell id="iVYWNHgPXUImS8ycA5Ws-80" value="" style="endArrow=classic;html=1;rounded=0;dashed=1;" parent="1" edge="1">
          <mxGeometry width="50" height="50" relative="1" as="geometry">
            <mxPoint x="280" y="661" as="sourcePoint" />
            <mxPoint x="132" y="660" as="targetPoint" />
          </mxGeometry>
        </mxCell>
        <mxCell id="iVYWNHgPXUImS8ycA5Ws-82" value="DisplaySuccess()" style="edgeLabel;html=1;align=center;verticalAlign=middle;resizable=0;points=[];" parent="iVYWNHgPXUImS8ycA5Ws-80" vertex="1" connectable="0">
          <mxGeometry x="0.0165" y="2" relative="1" as="geometry">
            <mxPoint y="-2" as="offset" />
          </mxGeometry>
        </mxCell>
        <mxCell id="iVYWNHgPXUImS8ycA5Ws-81" value="" style="rounded=0;whiteSpace=wrap;html=1;fillColor=#5E5E5E;" parent="1" vertex="1">
          <mxGeometry x="110" y="640" width="20" height="110" as="geometry" />
        </mxCell>
        <mxCell id="iVYWNHgPXUImS8ycA5Ws-83" value="" style="endArrow=classic;html=1;rounded=0;exitX=0.892;exitY=0.826;exitDx=0;exitDy=0;exitPerimeter=0;entryX=0;entryY=0.75;entryDx=0;entryDy=0;" parent="1" source="iVYWNHgPXUImS8ycA5Ws-81" target="iVYWNHgPXUImS8ycA5Ws-84" edge="1">
          <mxGeometry width="50" height="50" relative="1" as="geometry">
            <mxPoint x="160" y="740" as="sourcePoint" />
            <mxPoint x="210" y="690" as="targetPoint" />
          </mxGeometry>
        </mxCell>
        <mxCell id="iVYWNHgPXUImS8ycA5Ws-86" value="Redirection()" style="edgeLabel;html=1;align=center;verticalAlign=middle;resizable=0;points=[];" parent="iVYWNHgPXUImS8ycA5Ws-83" vertex="1" connectable="0">
          <mxGeometry x="-0.0792" y="-3" relative="1" as="geometry">
            <mxPoint as="offset" />
          </mxGeometry>
        </mxCell>
        <mxCell id="iVYWNHgPXUImS8ycA5Ws-85" value="" style="endArrow=none;dashed=1;html=1;dashPattern=1 3;strokeWidth=2;rounded=0;entryX=0.5;entryY=1;entryDx=0;entryDy=0;" parent="1" target="iVYWNHgPXUImS8ycA5Ws-84" edge="1">
          <mxGeometry width="50" height="50" relative="1" as="geometry">
            <mxPoint x="680" y="970" as="sourcePoint" />
            <mxPoint x="680" y="140" as="targetPoint" />
          </mxGeometry>
        </mxCell>
        <mxCell id="iVYWNHgPXUImS8ycA5Ws-84" value="" style="rounded=0;whiteSpace=wrap;html=1;fillColor=#5E5E5E;" parent="1" vertex="1">
          <mxGeometry x="670" y="710" width="20" height="30" as="geometry" />
        </mxCell>
        <mxCell id="iVYWNHgPXUImS8ycA5Ws-87" value="" style="rounded=0;whiteSpace=wrap;html=1;fillColor=#5E5E5E;" parent="1" vertex="1">
          <mxGeometry x="110" y="870" width="20" height="60" as="geometry" />
        </mxCell>
        <mxCell id="iVYWNHgPXUImS8ycA5Ws-90" value="&lt;font style=&quot;font-size: 9px;&quot;&gt;[invalid input]&lt;/font&gt;" style="text;html=1;align=center;verticalAlign=middle;whiteSpace=wrap;rounded=0;" parent="1" vertex="1">
          <mxGeometry x="50" y="840" width="60" height="20" as="geometry" />
        </mxCell>
        <mxCell id="iVYWNHgPXUImS8ycA5Ws-93" value="" style="endArrow=none;html=1;rounded=0;exitX=0.003;exitY=0.758;exitDx=0;exitDy=0;exitPerimeter=0;entryX=0.997;entryY=0.755;entryDx=0;entryDy=0;entryPerimeter=0;dashed=1;dashPattern=12 12;" parent="1" source="iVYWNHgPXUImS8ycA5Ws-34" target="iVYWNHgPXUImS8ycA5Ws-34" edge="1">
          <mxGeometry width="50" height="50" relative="1" as="geometry">
            <mxPoint x="110" y="850" as="sourcePoint" />
            <mxPoint x="160" y="800" as="targetPoint" />
          </mxGeometry>
        </mxCell>
        <mxCell id="iVYWNHgPXUImS8ycA5Ws-94" value="" style="endArrow=classic;html=1;rounded=0;entryX=1;entryY=0.5;entryDx=0;entryDy=0;dashed=1;" parent="1" target="iVYWNHgPXUImS8ycA5Ws-87" edge="1">
          <mxGeometry width="50" height="50" relative="1" as="geometry">
            <mxPoint x="280" y="900" as="sourcePoint" />
            <mxPoint x="270" y="870" as="targetPoint" />
          </mxGeometry>
        </mxCell>
        <mxCell id="iVYWNHgPXUImS8ycA5Ws-95" value="DisplayInputError()" style="edgeLabel;html=1;align=center;verticalAlign=middle;resizable=0;points=[];" parent="iVYWNHgPXUImS8ycA5Ws-94" vertex="1" connectable="0">
          <mxGeometry x="-0.0267" y="3" relative="1" as="geometry">
            <mxPoint as="offset" />
          </mxGeometry>
        </mxCell>
        <mxCell id="iVYWNHgPXUImS8ycA5Ws-96" value="" style="endArrow=none;dashed=1;html=1;dashPattern=1 3;strokeWidth=2;rounded=0;entryX=0.5;entryY=1;entryDx=0;entryDy=0;exitX=0.5;exitY=0;exitDx=0;exitDy=0;" parent="1" source="iVYWNHgPXUImS8ycA5Ws-13" target="iVYWNHgPXUImS8ycA5Ws-7" edge="1">
          <mxGeometry width="50" height="50" relative="1" as="geometry">
            <mxPoint x="280" y="190" as="sourcePoint" />
            <mxPoint x="330" y="140" as="targetPoint" />
          </mxGeometry>
        </mxCell>
      </root>
    </mxGraphModel>
  </diagram>
</mxfile>
